{"extensionsUsed" : ["KHR_materials_unlit"], "accessors" : [{"bufferView" : 0, "byteOffset" : 0, "componentType" : 5123, "count" : 37668, "type" : "SCALAR", "max" : [31446], "min" : [0]}, {"bufferView" : 1, "byteOffset" : 0, "componentType" : 5126, "count" : 31447, "type" : "VEC3", "max" : [31.87700080871582, -11.74899959564209, 31.093000411987305], "min" : [-51.65800094604492, -100.42900085449219, -28.34600067138672], "name" : "POSITION"}, {"bufferView" : 1, "byteOffset" : 12, "componentType" : 5126, "count" : 31447, "type" : "VEC3", "max" : [0.9999011158943176, 0.9996589422225952, 1.0000044107437134], "min" : [-0.9998723268508911, -1.0000044107437134, -0.9999401569366455], "name" : "NORMAL"}, {"bufferView" : 0, "byteOffset" : 75336, "componentType" : 5123, "count" : 35076, "type" : "SCALAR", "max" : [29186], "min" : [0]}, {"bufferView" : 2, "byteOffset" : 0, "componentType" : 5126, "count" : 29187, "type" : "VEC3", "max" : [66.6969985961914, -11.75, 46.819000244140625], "min" : [-86.55999755859375, -271, -49.92399978637695], "name" : "POSITION"}, {"bufferView" : 2, "byteOffset" : 12, "componentType" : 5126, "count" : 29187, "type" : "VEC3", "max" : [0.999097466468811, 1.0000044107437134, 0.9999185800552368], "min" : [-0.9999900460243225, -0.9999998807907104, -0.999988317489624], "name" : "NORMAL"}, {"bufferView" : 0, "byteOffset" : 145488, "componentType" : 5123, "count" : 16506, "type" : "SCALAR", "max" : [14051], "min" : [0]}, {"bufferView" : 3, "byteOffset" : 0, "componentType" : 5126, "count" : 14052, "type" : "VEC3", "max" : [28.379100799560547, 0.006000000052154064, 34.67070007324219], "min" : [-50.90230178833008, -156.52090454101562, -43.33980178833008], "name" : "POSITION"}, {"bufferView" : 3, "byteOffset" : 12, "componentType" : 5126, "count" : 14052, "type" : "VEC3", "max" : [0.9998965263366699, 1.0000044107437134, 0.9999276399612427], "min" : [-0.9994087815284729, -0.9999439716339111, -1.0000041723251343], "name" : "NORMAL"}], "asset" : {"generator" : "Aspose.3D 23.4.0", "version" : "2.0"}, "buffers" : [{"uri" : "data:application/octet-stream;base64,", "byteLength" : 2320516}], "bufferViews" : [{"buffer" : 0, "byteOffset" : 0, "byteLength" : 178500, "target" : 34963}, {"buffer" : 0, "byteOffset" : 178504, "byteLength" : 904032, "byteStride" : 24, "target" : 34962}, {"buffer" : 0, "byteOffset" : 1082540, "byteLength" : 841824, "byteStride" : 24, "target" : 34962}, {"buffer" : 0, "byteOffset" : 1924368, "byteLength" : 396144, "byteStride" : 24, "target" : 34962}], "materials" : [{"name" : "color_1458557", "extensions" : {"KHR_materials_unlit" : {}}, "pbrMetallicRoughness" : {"baseColorFactor" : [0.0367201225711446, 0.07080082611978883, 0.11106511231140416, 1], "metallicFactor" : 0, "roughnessFactor" : 1}, "emissiveFactor" : [0, 0, 0], "alphaMode" : "OPAQUE", "doubleSided" : true}, {"name" : "color_16448250", "extensions" : {"KHR_materials_unlit" : {}}, "pbrMetallicRoughness" : {"baseColorFactor" : [0.980392, 0.980392, 0.980392, 1], "metallicFactor" : 0, "roughnessFactor" : 1}, "emissiveFactor" : [0, 0, 0], "alphaMode" : "OPAQUE", "doubleSided" : true}, {"name" : "color_2829873", "extensions" : {"KHR_materials_unlit" : {}}, "pbrMetallicRoughness" : {"baseColorFactor" : [0, 0, 0, 1], "metallicFactor" : 0, "roughnessFactor" : 1}, "emissiveFactor" : [0, 0, 0], "alphaMode" : "OPAQUE", "doubleSided" : true}], "meshes" : [{"primitives" : [{"attributes" : {"POSITION" : 1, "NORMAL" : 2}, "indices" : 0, "material" : 0, "mode" : 4}]}, {"primitives" : [{"attributes" : {"POSITION" : 4, "NORMAL" : 5}, "indices" : 3, "material" : 1, "mode" : 4}]}, {"primitives" : [{"attributes" : {"POSITION" : 7, "NORMAL" : 8}, "indices" : 6, "material" : 2, "mode" : 4}]}], "nodes" : [{"mesh" : 0, "name" : "Object_2"}, {"mesh" : 1, "name" : "Object_3"}, {"mesh" : 2, "name" : "Object_4"}, {"children" : [0, 1, 2], "name" : "tinker.obj.cleaner.materialmerger.gles"}, {"children" : [3], "matrix" : [1, 0, 0, 0, 0, -1, 0, 0, 0, 0, -1, 0, 0, -137.04954528808597, 133.94441223144528, 1], "name" : "Sketchfab_model"}], "scene" : 0, "scenes" : [{"nodes" : [4]}]}